<?xml version="1.0" encoding="UTF-8"?>
<svg id="Capa_2" data-name="Capa 2" xmlns="http://www.w3.org/2000/svg" viewBox="0 0 3487.01 1372.4">
  <g id="Capa_1-2" data-name="Capa 1">
    <g>
      <path d="m304.75,628.2c12.04-6.69,22.33-14.62,30.86-23.76,19.83-21.24,29.74-47.2,29.74-77.88,0-24.08-5.91-46.03-17.7-65.85-11.81-19.83-28.92-35.64-51.34-47.44-22.42-11.79-49.68-17.7-81.77-17.7H0v499.87h213.12c35.4,0,65.73-6.37,90.98-19.11,25.25-12.75,44.61-30.1,58.06-52.04,13.45-21.95,20.18-46.61,20.18-73.99,0-35.87-11.45-66.08-34.34-90.63-11.86-12.71-26.27-23.2-43.25-31.47Zm-195-146.25h83.55c18.4,0,33.27,4.6,44.6,13.81,11.33,9.2,16.99,23.01,16.99,41.42s-5.66,32.92-16.99,42.12c-11.33,9.21-26.2,13.81-44.6,13.81h-83.55v-111.16Zm143.73,308c-12.28,12.74-29.27,19.11-50.98,19.11h-92.75v-131.69h92.75c14.62,0,27.01,2.83,37.17,8.49,10.15,5.67,18.06,13.46,23.72,23.37,5.66,9.91,8.5,21.24,8.5,33.98,0,18.41-6.14,33.99-18.41,46.74Z" fill="#fff"/>
      <path d="m683.96,565.5c-25.97-14.63-55.94-21.95-89.92-21.95s-66.32,7.79-94.17,23.36c-27.86,15.58-49.92,36.94-66.2,64.08-16.29,27.15-24.43,57.95-24.43,92.4s8.25,65.38,24.78,92.75c16.52,27.38,39.3,48.75,68.33,64.08,29.03,15.33,62.18,23.01,99.48,23.01,28.78,0,55.22-4.95,79.3-14.87,24.07-9.91,44.6-24.78,61.6-44.6l-59.48-59.48c-10.39,11.81-22.42,20.66-36.11,26.55-13.7,5.91-29.03,8.85-46.02,8.85-18.41,0-34.34-3.89-47.79-11.68-13.46-7.79-23.85-18.87-31.16-33.28-2.43-4.78-4.46-9.9-6.08-15.34l246.46-.59c1.88-8.96,3.19-16.87,3.9-23.72.7-6.83,1.06-13.33,1.06-19.47,0-33.51-7.44-63.25-22.31-89.21-14.86-25.96-35.29-46.26-61.24-60.89Zm-167.86,119.52c1.46-4.96,3.24-9.64,5.36-14.02,6.84-14.17,16.52-25.14,29.03-32.93,12.51-7.79,27.26-11.68,44.26-11.68,16.04,0,29.61,3.43,40.71,10.27,11.08,6.84,19.47,16.76,25.13,29.73,2.38,5.47,4.31,11.53,5.77,18.2l-150.26.43Z" fill="#fff"/>
      <path d="m915.48,634.53c6.13-3.54,15.33-5.31,27.61-5.31s25.85,2.6,39.3,7.79c13.45,5.2,25.6,14.16,36.46,26.9l61.6-62.3c-15.57-19.83-35.75-34.81-60.54-44.96-24.78-10.15-51.8-15.23-81.07-15.23s-52.16,4.73-72.92,14.16c-20.78,9.45-36.82,22.31-48.15,38.59-11.33,16.29-16.99,35.53-16.99,57.71,0,20.77,4,37.88,12.03,51.33,8.02,13.45,18.41,23.96,31.16,31.51,12.74,7.55,26.19,13.45,40.36,17.7,14.16,4.25,27.61,8.14,40.35,11.68,12.75,3.54,23.25,7.56,31.51,12.04,8.25,4.49,12.39,10.97,12.39,19.47,0,6.62-3.43,11.8-10.26,15.58-6.85,3.78-16.64,5.66-29.39,5.66-18.41,0-35.4-3.42-50.98-10.27-15.57-6.83-29.03-16.39-40.36-28.67l-61.59,62.31c11.79,12.74,26.07,23.96,42.83,33.63,16.75,9.68,34.93,17.11,54.52,22.3,19.58,5.19,39.53,7.79,59.83,7.79,42.95,0,77.05-9.91,102.31-29.74,25.25-19.82,37.88-46.49,37.88-80.01,0-21.7-4.01-39.29-12.03-52.74-8.04-13.46-18.41-24.19-31.16-32.22-12.74-8.02-26.2-14.39-40.36-19.12-14.16-4.71-27.61-8.73-40.35-12.03-12.75-3.3-23.14-7.08-31.16-11.33-8.03-4.25-12.04-9.92-12.04-17,0-6.6,3.07-11.68,9.21-15.22Z" fill="#fff"/>
      <path d="m1694.31,843.76l-59.47-59.48c-10.39,11.81-22.43,20.66-36.11,26.55-13.7,5.91-29.03,8.85-46.03,8.85-18.41,0-34.34-3.89-47.79-11.68-13.45-7.79-23.84-18.87-31.15-33.28-2.43-4.78-4.47-9.9-6.09-15.34l246.47-.59c1.88-8.96,3.18-16.87,3.89-23.72.71-6.83,1.06-13.33,1.06-19.47,0-33.51-7.43-63.25-22.3-89.21-14.87-25.96-35.29-46.26-61.25-60.89-25.96-14.63-55.93-21.95-89.92-21.95s-66.32,7.79-94.17,23.36c-27.85,15.58-49.91,36.94-66.2,64.08-16.28,27.15-24.42,57.95-24.42,92.4s8.25,65.38,24.78,92.75c16.51,27.38,39.29,48.75,68.32,64.08,29.03,15.33,62.19,23.01,99.48,23.01,28.79,0,55.23-4.95,79.3-14.87,24.08-9.91,44.61-24.78,61.6-44.6Zm-221.26-172.76c6.84-14.17,16.52-25.14,29.03-32.93,12.5-7.79,27.26-11.68,44.25-11.68,16.04,0,29.62,3.43,40.71,10.27,11.09,6.84,19.47,16.76,25.14,29.73,2.38,5.47,4.3,11.53,5.77,18.2l-150.27.43c1.46-4.96,3.25-9.64,5.37-14.02Z" fill="#fff"/>
      <path d="m1870.92,895.44h.08V381.4h-110.96v261.98h0v227.69c-.8,3.5-1.71,6.08-2.76,7.61-13.93,20.38-48.35,22.27-69.64,30.42-20.36,7.8-34.65,24.6-39.46,45.86-7.59,33.61,3.49,69.27,13.37,101.2,16.78,54.26,31.43,109.34,52.95,161.99,15.18,37.15,34.43,72.26,61.88,102.28,16,17.51,64.96,70.35,91.8,45.38,6.32-5.89,6.46-15.68,6.15-24.32-5.46-149.91-3.81-296.94-3.41-446.05Z" fill="#fff"/>
      <path d="m2378.24,395.57l-198.25,499.87h115.41l33.25-90.63h195.93l32.79,90.63h117.54l-196.13-499.87h-100.54Zm-16.34,318.62l65.41-178.27,64.49,178.27h-129.9Z" fill="#fff"/>
      <path d="m2996.7,567.62c-25.26-15.58-54.16-23.36-86.73-23.36-23.14,0-44.38,4.72-63.73,14.16-9.6,4.69-18.33,10.24-26.19,16.67v-23.75h-108.33v489.25h106.91v-168.51c8.22,6.61,17.42,12.28,27.61,16.99,19.35,8.96,40.59,13.45,63.73,13.45,32.57,0,61.47-7.78,86.73-23.36,25.25-15.58,45.07-36.82,59.48-63.72,14.39-26.91,21.59-57.59,21.59-92.05s-7.2-65.14-21.59-92.05c-14.41-26.9-34.23-48.14-59.48-63.72Zm-38.59,197.54c-6.61,12.28-15.69,21.95-27.26,29.03-11.57,7.08-25.13,10.62-40.71,10.62-14.63,0-27.85-3.54-39.65-10.62s-20.89-16.75-27.26-29.03c-6.37-12.26-9.56-26.19-9.56-41.77s3.3-30.2,9.92-42.48c6.6-12.27,15.68-21.83,27.26-28.68,11.56-6.83,24.89-10.26,40-10.26s28.43,3.43,40,10.26c11.57,6.85,20.65,16.41,27.26,28.68,6.61,12.28,9.92,26.44,9.92,42.48s-3.31,29.51-9.92,41.77Z" fill="#fff"/>
      <path d="m3465.42,631.34c-14.41-26.9-34.23-48.14-59.48-63.72-25.26-15.58-54.16-23.36-86.73-23.36-23.14,0-44.38,4.72-63.73,14.16-9.6,4.69-18.33,10.24-26.19,16.67v-23.75h-108.33v489.25h106.91v-168.51c8.22,6.61,17.42,12.28,27.61,16.99,19.35,8.96,40.59,13.45,63.73,13.45,32.57,0,61.47-7.78,86.73-23.36,25.25-15.58,45.07-36.82,59.48-63.72,14.39-26.91,21.59-57.59,21.59-92.05s-7.2-65.14-21.59-92.05Zm-98.07,133.82c-6.61,12.28-15.69,21.95-27.26,29.03-11.57,7.08-25.13,10.62-40.71,10.62-14.63,0-27.85-3.54-39.65-10.62s-20.89-16.75-27.26-29.03c-6.37-12.26-9.56-26.19-9.56-41.77s3.3-30.2,9.92-42.48c6.6-12.27,15.68-21.83,27.26-28.68,11.56-6.83,24.89-10.26,40-10.26s28.43,3.43,40,10.26c11.57,6.85,20.65,16.41,27.26,28.68,6.61,12.28,9.92,26.44,9.92,42.48s-3.31,29.51-9.92,41.77Z" fill="#fff"/>
      <path d="m2312.84,1195.8c-3.22,0-3.22,5,0,5s3.22-5,0-5Z" fill="#fff"/>
      <polygon points="1277.29 409.02 1168.96 409.02 1168.96 551.33 1091.07 551.33 1091.07 643.38 1168.96 643.38 1168.96 895.44 1277.29 895.44 1277.29 643.38 1355.17 643.38 1355.17 551.33 1277.29 551.33 1277.29 409.02" fill="#fff"/>
      <path d="m2039.24,0v252.75c0,6.19-5.08,11.19-11.29,11.07-6.09-.12-10.86-5.35-10.86-11.45V0h-19.47v252.75c0,6.19-5.06,11.18-11.27,11.07-6.1-.11-10.88-5.34-10.88-11.44V0h-19.47v252.37c0,6.09-4.76,11.33-10.86,11.45-6.21.12-11.29-4.87-11.29-11.07V0h-20.33l-20.81,250.33c0,48.87,3.9,86.09,15.23,112.67,14.74,34.55,22.94,71.54,22.94,109.1v423.34h110.95v-423.35c0-37.57,8.21-74.55,22.94-109.11,11.33-26.57,15.23-63.78,15.23-112.64L2059.57,0h-20.33Z" fill="#fff"/>
    </g>
  </g>
</svg>